<svg width="current" height="current" viewBox="0 0 24 24" fill="none" xmlns="http://www.w3.org/2000/svg">
<rect x="4" y="8" width="16" height="11" fill="#5A5A5A"/>
<rect x="19" y="10" width="2" height="5" fill="#5A5A5A"/>
<rect x="9" y="6" width="5" height="3" fill="#5A5A5A"/>
<rect x="11" y="4" width="4" height="2" fill="#5A5A5A"/>
<path d="M18 21H7V8L14 1L15.25 2.25C15.3667 2.36667 15.4627 2.525 15.538 2.725C15.6127 2.925 15.65 3.11667 15.65 3.3V3.65L14.55 8H21C21.5333 8 22 8.2 22.4 8.6C22.8 9 23 9.46667 23 10V12C23 12.1167 22.9833 12.2417 22.95 12.375C22.9167 12.5083 22.8833 12.6333 22.85 12.75L19.85 19.8C19.7 20.1333 19.45 20.4167 19.1 20.65C18.75 20.8833 18.3833 21 18 21ZM9 19H18L21 12V10H12L13.35 4.5L9 8.85V19ZM9 8.85V19V8.85ZM7 8V10H4V19H7V21H2V8H7Z" fill="black"/>
</svg>
