<svg width="146" height="59" viewBox="0 0 146 59" fill="none" xmlns="http://www.w3.org/2000/svg">
<path d="M34.9145 19H38.6505V30.4754C38.6505 31.7638 38.3427 32.8912 37.7273 33.8576C37.1175 34.8239 36.2634 35.5775 35.1647 36.1181C34.0661 36.6531 32.7863 36.9206 31.3252 36.9206C29.8585 36.9206 28.5758 36.6531 27.4771 36.1181C26.3785 35.5775 25.5243 34.8239 24.9146 33.8576C24.3049 32.8912 24 31.7638 24 30.4754V19H27.736V30.1561C27.736 30.8291 27.8826 31.4273 28.176 31.9508C28.4751 32.4742 28.895 32.8855 29.4357 33.1846C29.9764 33.4837 30.6062 33.6333 31.3252 33.6333C32.05 33.6333 32.6798 33.4837 33.2148 33.1846C33.7555 32.8855 34.1725 32.4742 34.4658 31.9508C34.765 31.4273 34.9145 30.8291 34.9145 30.1561V19Z" fill="#3D67FF"/>
<path d="M41.1693 41.6401V23.4176H44.793V25.6436H44.957C45.118 25.287 45.351 24.9246 45.6558 24.5565C45.9665 24.1826 46.3691 23.872 46.8638 23.6247C47.3642 23.3716 47.9854 23.245 48.7274 23.245C49.6938 23.245 50.5854 23.4981 51.4021 24.0043C52.2189 24.5047 52.8718 25.2611 53.3607 26.2735C53.8496 27.2801 54.0941 28.5427 54.0941 30.0612C54.0941 31.5395 53.8554 32.7877 53.378 33.8058C52.9063 34.8182 52.2621 35.5861 51.4453 36.1095C50.6342 36.6272 49.7254 36.886 48.7188 36.886C48.0056 36.886 47.3987 36.7681 46.8983 36.5323C46.4036 36.2965 45.9981 36.0002 45.6817 35.6436C45.3654 35.2812 45.1238 34.916 44.957 34.5478H44.8448V41.6401H41.1693ZM44.7672 30.044C44.7672 30.832 44.8764 31.5194 45.095 32.1061C45.3136 32.6928 45.63 33.1501 46.0441 33.4779C46.4583 33.8001 46.9616 33.9611 47.554 33.9611C48.1522 33.9611 48.6584 33.7972 49.0726 33.4693C49.4867 33.1357 49.8002 32.6755 50.013 32.0888C50.2316 31.4964 50.3409 30.8147 50.3409 30.044C50.3409 29.2789 50.2345 28.6059 50.0217 28.025C49.8088 27.444 49.4953 26.9896 49.0812 26.6618C48.667 26.3339 48.158 26.1699 47.554 26.1699C46.9558 26.1699 46.4496 26.3281 46.0355 26.6445C45.6271 26.9609 45.3136 27.4095 45.095 27.9905C44.8764 28.5714 44.7672 29.2559 44.7672 30.044Z" fill="#3D67FF"/>
<path d="M58.3428 36.6703H54.3394L60.4394 19H65.2539L71.3453 36.6703H67.3419L62.9157 23.0379H62.7776L58.3428 36.6703Z" fill="#3D67FF"/>
<path d="M72.9172 36.6703V23.4176H76.4806V25.7299H76.6186C76.8602 24.9074 77.2657 24.2861 77.8352 23.8662C78.4046 23.4406 79.0604 23.2278 79.8024 23.2278C79.9864 23.2278 80.1849 23.2393 80.3977 23.2623C80.6105 23.2853 80.7975 23.3169 80.9585 23.3572V26.6186C80.786 26.5668 80.5473 26.5208 80.2424 26.4806C79.9376 26.4403 79.6586 26.4202 79.4055 26.4202C78.8648 26.4202 78.3816 26.5381 77.956 26.7739C77.5361 27.004 77.2025 27.3261 76.9551 27.7403C76.7135 28.1544 76.5927 28.6318 76.5927 29.1725V36.6703H72.9172Z" fill="#3D67FF"/>
<path d="M82.3729 36.6703V23.4176H85.9363V25.7299H86.0744C86.316 24.9074 86.7215 24.2861 87.2909 23.8662C87.8604 23.4406 88.5161 23.2278 89.2581 23.2278C89.4422 23.2278 89.6406 23.2393 89.8535 23.2623C90.0663 23.2853 90.2532 23.3169 90.4143 23.3572V26.6186C90.2417 26.5668 90.003 26.5208 89.6982 26.4806C89.3933 26.4403 89.1143 26.4202 88.8612 26.4202C88.3206 26.4202 87.8374 26.5381 87.4117 26.7739C86.9918 27.004 86.6582 27.3261 86.4109 27.7403C86.1693 28.1544 86.0485 28.6318 86.0485 29.1725V36.6703H82.3729Z" fill="#3D67FF"/>
<path d="M97.1997 36.9292C95.8594 36.9292 94.7004 36.6445 93.7226 36.075C92.7505 35.4998 91.9998 34.7003 91.4706 33.6764C90.9414 32.6468 90.6768 31.4532 90.6768 30.0957C90.6768 28.7267 90.9414 27.5303 91.4706 26.5064C91.9998 25.4768 92.7505 24.6773 93.7226 24.1078C94.7004 23.5326 95.8594 23.245 97.1997 23.245C98.5399 23.245 99.6961 23.5326 100.668 24.1078C101.646 24.6773 102.4 25.4768 102.929 26.5064C103.458 27.5303 103.722 28.7267 103.722 30.0957C103.722 31.4532 103.458 32.6468 102.929 33.6764C102.4 34.7003 101.646 35.4998 100.668 36.075C99.6961 36.6445 98.5399 36.9292 97.1997 36.9292ZM97.2169 34.0819C97.8266 34.0819 98.3357 33.9094 98.7441 33.5642C99.1525 33.2134 99.4602 32.7359 99.6673 32.132C99.8801 31.528 99.9865 30.8406 99.9865 30.0699C99.9865 29.2991 99.8801 28.6117 99.6673 28.0077C99.4602 27.4038 99.1525 26.9263 98.7441 26.5755C98.3357 26.2246 97.8266 26.0492 97.2169 26.0492C96.6015 26.0492 96.0838 26.2246 95.6639 26.5755C95.2497 26.9263 94.9362 27.4038 94.7234 28.0077C94.5163 28.6117 94.4128 29.2991 94.4128 30.0699C94.4128 30.8406 94.5163 31.528 94.7234 32.132C94.9362 32.7359 95.2497 33.2134 95.6639 33.5642C96.0838 33.9094 96.6015 34.0819 97.2169 34.0819Z" fill="#3D67FF"/>
<path d="M107.909 36.6703L104.302 23.4176H108.021L110.074 32.3218H110.195L112.335 23.4176H115.985L118.159 32.27H118.271L120.29 23.4176H124L120.402 36.6703H116.511L114.233 28.3356H114.069L111.791 36.6703H107.909Z" fill="#3D67FF"/>
</svg>
