<svg width="89" height="20" viewBox="0 0 89 20" fill="none" xmlns="http://www.w3.org/2000/svg">
<path d="M9.6417 0H12.942V10.1372C12.942 11.2754 12.6701 12.2713 12.1264 13.125C11.5878 13.9786 10.8333 14.6443 9.86274 15.1219C8.89221 15.5945 7.76163 15.8307 6.47099 15.8307C5.17527 15.8307 4.04215 15.5945 3.07163 15.1219C2.1011 14.6443 1.34654 13.9786 0.807922 13.125C0.269307 12.2713 0 11.2754 0 10.1372V0H3.30028V9.85515C3.30028 10.4497 3.42986 10.9781 3.689 11.4405C3.95323 11.9029 4.32416 12.2662 4.8018 12.5304C5.27943 12.7947 5.83583 12.9268 6.47099 12.9268C7.11123 12.9268 7.66763 12.7947 8.14019 12.5304C8.61783 12.2662 8.98622 11.9029 9.24536 11.4405C9.50959 10.9781 9.6417 10.4497 9.6417 9.85515V0Z" fill="#3D67FF"/>
<path d="M15.167 19.9999V3.90243H18.3682V5.86888H18.5131C18.6553 5.55384 18.8611 5.23372 19.1304 4.90852C19.4048 4.57824 19.7605 4.30385 20.1975 4.08535C20.6396 3.86178 21.1883 3.74999 21.8438 3.74999C22.6975 3.74999 23.4851 3.97356 24.2066 4.42072C24.9282 4.86279 25.5049 5.53098 25.9368 6.42528C26.3687 7.31451 26.5846 8.42985 26.5846 9.77131C26.5846 11.0772 26.3738 12.1798 25.952 13.0792C25.5354 13.9735 24.9663 14.6519 24.2447 15.1143C23.5283 15.5716 22.7254 15.8003 21.8362 15.8003C21.2061 15.8003 20.6701 15.6961 20.228 15.4878C19.791 15.2794 19.4328 15.0177 19.1533 14.7027C18.8738 14.3826 18.6604 14.0599 18.5131 13.7347H18.414V19.9999H15.167ZM18.3454 9.75607C18.3454 10.4522 18.4419 11.0594 18.635 11.5777C18.8281 12.096 19.1076 12.5 19.4734 12.7896C19.8393 13.0741 20.2839 13.2164 20.8073 13.2164C21.3357 13.2164 21.7829 13.0716 22.1487 12.782C22.5146 12.4873 22.7915 12.0808 22.9795 11.5625C23.1726 11.0391 23.2691 10.437 23.2691 9.75607C23.2691 9.08026 23.1751 8.48574 22.9871 7.97253C22.7991 7.45932 22.5222 7.0579 22.1563 6.76827C21.7905 6.47864 21.3408 6.33382 20.8073 6.33382C20.2788 6.33382 19.8316 6.47356 19.4658 6.75303C19.105 7.0325 18.8281 7.42884 18.635 7.94205C18.4419 8.45526 18.3454 9.05993 18.3454 9.75607Z" fill="#3D67FF"/>
<path d="M30.3379 15.6097H26.8013L32.19 0H36.443L41.8241 15.6097H38.2875L34.3775 3.56706H34.2556L30.3379 15.6097Z" fill="#3D67FF"/>
<path d="M43.2127 15.6097V3.90243H46.3605V5.9451H46.4825C46.6959 5.21848 47.0541 4.6697 47.5571 4.29877C48.0602 3.92275 48.6395 3.73474 49.2949 3.73474C49.4575 3.73474 49.6328 3.74491 49.8208 3.76523C50.0089 3.78556 50.174 3.8135 50.3163 3.84907V6.73016C50.1638 6.68443 49.953 6.64378 49.6837 6.60821C49.4143 6.57264 49.1679 6.55486 48.9443 6.55486C48.4667 6.55486 48.0399 6.65902 47.6638 6.86736C47.2929 7.07061 46.9982 7.35516 46.7797 7.72101C46.5663 8.08686 46.4596 8.50861 46.4596 8.98625V15.6097H43.2127Z" fill="#3D67FF"/>
<path d="M51.5657 15.6097V3.90243H54.7136V5.9451H54.8355C55.0489 5.21848 55.4072 4.6697 55.9102 4.29877C56.4133 3.92275 56.9925 3.73474 57.648 3.73474C57.8106 3.73474 57.9859 3.74491 58.1739 3.76523C58.3619 3.78556 58.5271 3.8135 58.6693 3.84907V6.73016C58.5169 6.68443 58.306 6.64378 58.0367 6.60821C57.7674 6.57264 57.521 6.55486 57.2974 6.55486C56.8198 6.55486 56.3929 6.65902 56.0169 6.86736C55.646 7.07061 55.3513 7.35516 55.1328 7.72101C54.9194 8.08686 54.8126 8.50861 54.8126 8.98625V15.6097H51.5657Z" fill="#3D67FF"/>
<path d="M64.6634 15.8384C63.4795 15.8384 62.4556 15.5868 61.5918 15.0838C60.7331 14.5757 60.07 13.8694 59.6025 12.9649C59.135 12.0553 58.9013 11.001 58.9013 9.8018C58.9013 8.59245 59.135 7.53554 59.6025 6.63108C60.07 5.72153 60.7331 5.01523 61.5918 4.51218C62.4556 4.00405 63.4795 3.74999 64.6634 3.74999C65.8474 3.74999 66.8687 4.00405 67.7274 4.51218C68.5912 5.01523 69.2569 5.72153 69.7244 6.63108C70.1918 7.53554 70.4256 8.59245 70.4256 9.8018C70.4256 11.001 70.1918 12.0553 69.7244 12.9649C69.2569 13.8694 68.5912 14.5757 67.7274 15.0838C66.8687 15.5868 65.8474 15.8384 64.6634 15.8384ZM64.6787 13.3231C65.2173 13.3231 65.667 13.1707 66.0277 12.8658C66.3885 12.5559 66.6604 12.1341 66.8433 11.6006C67.0313 11.067 67.1253 10.4598 67.1253 9.77893C67.1253 9.09804 67.0313 8.49083 66.8433 7.95729C66.6604 7.42376 66.3885 7.00201 66.0277 6.69205C65.667 6.38209 65.2173 6.22711 64.6787 6.22711C64.135 6.22711 63.6777 6.38209 63.3067 6.69205C62.9409 7.00201 62.6639 7.42376 62.4759 7.95729C62.293 8.49083 62.2015 9.09804 62.2015 9.77893C62.2015 10.4598 62.293 11.067 62.4759 11.6006C62.6639 12.1341 62.9409 12.5559 63.3067 12.8658C63.6777 13.1707 64.135 13.3231 64.6787 13.3231Z" fill="#3D67FF"/>
<path d="M74.1236 15.6097L70.9376 3.90243H74.2227L76.0367 11.7683H76.1434L78.0336 3.90243H81.2577L83.1784 11.7225H83.2775L85.061 3.90243H88.3384L85.1601 15.6097H81.7226L79.7104 8.24692H79.5656L77.5534 15.6097H74.1236Z" fill="#3D67FF"/>
</svg>
